<?xml version="1.0" encoding="utf-8"?>
<!-- Generator: Adobe Illustrator 13.0.0, SVG Export Plug-In . SVG Version: 6.00 Build 14948)  -->
<!DOCTYPE svg PUBLIC "-//W3C//DTD SVG 1.1//EN" "http://www.w3.org/Graphics/SVG/1.1/DTD/svg11.dtd">
<svg version="1.1" id="Layer_1" xmlns="http://www.w3.org/2000/svg" xmlns:xlink="http://www.w3.org/1999/xlink" x="0px" y="0px"
	 width="537.541px" height="630.455px" viewBox="0 0 537.541 630.455" style="enable-background:new 0 0 537.541 630.455;"
	 xml:space="preserve">
<g>
	<g>
		<path style="fill:#322435;" d="M215.595,527.129l2.092,37.075c0,0-56.997,40.498-50.998,38.998
			c6-1.499,53.998-25.498,53.998-25.498s13.499,56.997,17.999,52.497s-4.5-53.997-4.5-53.997s63.998,22.499,63.998,16.499
			s-66.998-28.499-66.998-28.499l-5.091-40.075L215.595,527.129z"/>
		<path style="fill:#3B2E37;" d="M221.428,535.129l1.333,33.333c0,0-56.666,34.667-51,29.667c5.667-5,45.926-33.924,45.926-33.924
			l-1.592-29.409L221.428,535.129z"/>
		<path style="fill:#3B2E37;" d="M223.595,578.629c0.5-1.5,2-9,4-5.5s10.5,56.5,8.5,53.5S222.595,581.629,223.595,578.629"/>
		<polygon style="fill:#3B2E37;" points="190.095,85.129 188.975,77.289 186.095,57.129 222.095,57.129 218.095,175.129 
			198.095,177.129 		"/>
		<polygon style="fill:#EBDDCA;" points="6.095,82.307 406.089,71.068 406.089,513.129 17.333,529.988 		"/>
		<g>
			<defs>
				<rect id="SVGID_1_" x="35.422" y="91.235" width="350.727" height="427.759"/>
			</defs>
			<clipPath id="SVGID_2_">
				<use xlink:href="#SVGID_1_"  style="overflow:visible;"/>
			</clipPath>
			<polygon style="clip-path:url(#SVGID_2_);fill:none;stroke:#E3CDB8;stroke-width:2;stroke-miterlimit:10;" points="
				36.442,109.143 44.871,517.952 385.139,503.201 380.925,92.285 			"/>
		</g>
		<polygon style="fill:#FD616C;" points="45.432,507.994 94.604,402.626 143.776,443.368 181.708,330.976 235.095,349.239 
			306.34,194.7 334.438,217.178 372.035,150.391 384.68,160.225 338.653,236.847 311.96,217.178 242.119,373.124 191.543,349.239 
			147.99,470.062 101.628,423.7 52.457,517.828 44.871,517.828 		"/>
		<polygon style="fill:#FD616C;" points="400.098,126.993 331.726,171.014 372,172.886 379.493,211.288 		"/>
		<g>
			<defs>
				<rect id="SVGID_3_" x="147.097" y="482.398" width="3.996" height="31.462"/>
			</defs>
			<clipPath id="SVGID_4_">
				<use xlink:href="#SVGID_3_"  style="overflow:visible;"/>
			</clipPath>
			
				<line style="clip-path:url(#SVGID_4_);fill:none;stroke:#E3CDB8;stroke-width:2;stroke-miterlimit:10;" x1="150.095" y1="513.795" x2="148.095" y2="482.462"/>
		</g>
		<g>
			<defs>
				<polygon id="SVGID_5_" points="243.097,509.191 255.093,509.191 254.093,381.067 243.097,381.067 				"/>
			</defs>
			<clipPath id="SVGID_6_">
				<use xlink:href="#SVGID_5_"  style="overflow:visible;"/>
			</clipPath>
			
				<line style="clip-path:url(#SVGID_6_);fill:none;stroke:#E3CDB8;stroke-width:2;stroke-miterlimit:10;" x1="253.095" y1="509.129" x2="244.095" y2="381.129"/>
		</g>
		<g>
			<defs>
				<rect id="SVGID_7_" x="339.097" y="473.732" width="3.996" height="31.461"/>
			</defs>
			<clipPath id="SVGID_8_">
				<use xlink:href="#SVGID_7_"  style="overflow:visible;"/>
			</clipPath>
			
				<line style="clip-path:url(#SVGID_8_);fill:none;stroke:#E3CDB8;stroke-width:2;stroke-miterlimit:10;" x1="342.095" y1="505.129" x2="340.095" y2="473.796"/>
		</g>
		<g>
			<defs>
				<rect id="SVGID_9_" x="278.898" y="102.754" width="128.19" height="424.375"/>
			</defs>
			<clipPath id="SVGID_10_">
				<use xlink:href="#SVGID_9_"  style="overflow:visible;"/>
			</clipPath>
			<path style="clip-path:url(#SVGID_10_);fill:#E3CDB8;" d="M407.089,169.266l-40.994,1.863l-35,4l-29-49l-23.196-23.375
				l5.124,11.323c0,0,2.072,50.719,43.072,79.052c12,3,61-5,61-5s-101,206-47,339c2.613-1.306,40.229-31.212,65.994-51.789V169.266z
				"/>
		</g>
		<path style="fill:#BEB4A4;" d="M418.177,508.208c0,0-416.479,19.499-417.979,14.999s6,28.499,6,28.499l413.479-28.499
			L418.177,508.208z"/>
		<path style="fill:#FFB696;" d="M297.67,105.839c0,0-1.676-16.957,17.604-33.762c8.246-11.698-12.365-2.026-15.403,6.736
			l-3.037,8.761c0,0-3.476-26.237-9.203-18.464c-5.728,7.774-4.791,12.069-4.791,12.069s-2.713-7.282-4.614-2.592
			c-1.901,4.689-2.644,11.6-2.644,11.6s-2.713-7.282-3.924-2.519c-1.21,4.764,1.875,8.59,1.875,8.59s-5.307-2.666-4.986,0.863
			c0.32,3.53,13.982,13.384,13.982,13.384L297.67,105.839z"/>
		<path style="fill:#322435;" d="M347.428,304.129c0,0-34.332,172.926,5.47,279.723l-0.494,4.606c0,0-26.691,5.524-30.048,10.757
			c-0.495,4.607,36.103-6.378,36.103-6.378l3.258-4.311c2.666,1.217-26.594-160.369,33.412-233.155
			c0,0,61.387,22.898,72.111,235.626c0.922,0.099,27.463,9.004,34.408,5.09c5.601-0.098,4.664-4.393-22.344-8.922
			c-0.358-14.02-7.802-209.617-14.963-277.493C436.239,306.656,347.428,304.129,347.428,304.129"/>
		<path style="fill:#F2E8DF;" d="M436.399,144.495c0,0-60.066,29.903-91.684,168.183c6.351,1.614,60.117,39.074,119.626-3.007
			c0.468-39.096,14.89-123.53,17.385-133.748c-0.149,1.382-0.243-23.793-0.243-23.793l-12.785-4.635L436.399,144.495z"/>
		<path style="fill:#F2E8DF;" d="M436.399,144.495c0,0-59.152,27.905-92.102,22.272c-27.861-20.466-46.144-65.07-46.144-65.07
			l-15.625,8.809c0,0,23.24,57.019,41.576,75.065c11.303,5.407,51.608,7.636,80.562-8.131
			C425.502,165.695,438.349,152.394,436.399,144.495"/>
		<path style="fill:#F2E8DF;" d="M466.239,151.907c0,0,15.89-20.787,31.705-7.488c13.815,15.462,15.561,42.522,15.561,42.522
			l-31.065,6.073L466.239,151.907z"/>
		<path style="fill:#F2E8DF;" d="M522.231,221.514c0,0,18.656,21.575,14.779,31.645c-3.877,10.069-19.424-1.386-19.424-1.386
			S518.257,225.981,522.231,221.514"/>
		<path style="fill:#D3D2CB;" d="M295.97,140.306l4.554-33.177l-16.501,6.948C286.185,119.174,290.532,129.164,295.97,140.306"/>
		<polygon style="fill:#8A95A7;" points="302.746,97.996 278.383,110.061 281.811,123.71 305.854,108.116 		"/>
		<path style="fill:#D3D2CB;" d="M463.523,195.129c0,0,16,143-93.724,128.447c22.537,7.645,57.421,12.346,94.542-13.904
			c0.195-16.364,2.837-40.672,6.023-64.156L463.523,195.129z"/>
		<path style="fill:#EBDDCA;" d="M534.948,178.643l-90.964,7.718l-3.89,107.934l70.553-6.412
			C510.647,287.882,528.405,194.019,534.948,178.643"/>
		<g>
			<defs>
				<rect id="SVGID_11_" x="468.491" y="227.795" width="53.229" height="63.918"/>
			</defs>
			<clipPath id="SVGID_12_">
				<use xlink:href="#SVGID_11_"  style="overflow:visible;"/>
			</clipPath>
			<path style="clip-path:url(#SVGID_12_);fill:#E3CDB8;" d="M468.492,291.713l42.155-3.832c0,0,5.238-27.689,11.073-55.453
				l-18.53-4.633L468.492,291.713z"/>
		</g>
		<path style="fill:#FFB696;" d="M524.871,231.486c0,0-22.064-9.358-26.804-4.275c1.628,4.369,17.991,8.223,17.991,8.223
			s-18.511-3.385-18.265,0.836c0.246,4.22,16.832,6,16.832,6s-19.795,2.07-18.02,5.057c1.777,2.987,17.97,1.928,17.97,1.928
			s-10.121,3.108-11.948,7.107c-1.827,3.998,8.984,0.964,8.984,0.964s8.539,5.11,12.735-1.43
			C528.545,249.356,524.871,231.486,524.871,231.486"/>
		<path style="fill:#3B2E37;" d="M346.523,319.129c0,0,24,14,19,53s-26,114-16,195c-2-5-19.667-48.667-15.667-150.667
			C340.523,338.462,346.523,319.129,346.523,319.129"/>
		<path style="fill:#3B2E37;" d="M463.856,315.795c0,0-35.333,18-42,17.333c-3.333,7.334,50.667,110,53.333,148
			C473.189,439.795,470.523,335.795,463.856,315.795"/>
		<polyline style="fill:#D3D2CB;" points="435.523,163.129 374.523,315.129 360.523,317.129 358.523,303.129 431.649,164.488 		"/>
		<path style="fill:#4D5E72;" d="M430.253,153.622c0,0-7.629,12.463-5.777,14.759c1.851,2.296,18.265-0.836,21.548-5.377
			C449.308,158.463,430.253,153.622,430.253,153.622"/>
		<path style="fill:#4D5E72;" d="M431.649,164.488c0,0-43.456,92.271-57.287,142.981c-2.041,1.646-18.839,8.16-18.839,8.16
			l-3.604-16.16c0,0,26.624-69.261,75.604-134.84L431.649,164.488z"/>
		<g>
			<defs>
				<rect id="SVGID_13_" x="420.189" y="153.623" width="40.042" height="23.84"/>
			</defs>
			<clipPath id="SVGID_14_">
				<use xlink:href="#SVGID_13_"  style="overflow:visible;"/>
			</clipPath>
			<path style="clip-path:url(#SVGID_14_);fill:#E3CDB8;" d="M430.253,153.622l-10.062,12.174l12.666-7l11,18.666
				c0,0,17.334-21.666,16.334-21c-1,0.667-24.334,0.334-24.334,0.334L430.253,153.622z"/>
		</g>
		<path style="fill:#F2F0EB;" d="M445.647,140.827l-9.248,3.668l-15.191,15.613l12.573-4.243l14.048,21.081
			c0,0,20.212-27.658,20.87-29.451s-0.329-5.627-0.329-5.627L445.647,140.827z"/>
		<path style="fill:#FFB696;" d="M454.376,46.461c0,0-68.926,82.08-3.148,81.45c0,0-3.779,15.672-13.036,23.767
			c-9.257,8.094,16.043,0.323,21.72-0.466c5.505-5.7,30.637-37.955,30.637-37.955s11.92,6.172,20.166-5.525
			c7.629-12.464-8.168-8.567-8.168-8.567s20.197-38.376-2.559-47.809C477.232,41.924,464.004,34.913,454.376,46.461"/>
		<path style="fill:#DB8873;" d="M440.32,99.028l-1.354-0.644l3.639-7.66c-2.947,0.265-9.589,0.566-12.147-1.711l-0.288-0.256
			l0.041-0.384c0.885-8.243,15.19-12.349,15.8-12.52l0.405,1.445c-0.137,0.038-13.423,3.851-14.656,10.83
			c2.537,1.715,9.448,1.292,12.003,0.965l1.361-0.173L440.32,99.028z"/>
		<path style="fill:#DB8873;" d="M451.496,110.716c-9.763,0-18.807-7.618-19.236-7.985l0.975-1.14
			c0.114,0.096,11.479,9.659,21.857,7.22c5.311-1.248,9.519-5.437,12.51-12.45l1.379,0.588c-3.188,7.479-7.748,11.962-13.55,13.323
			C454.118,110.58,452.801,110.716,451.496,110.716"/>
		<path style="fill:#FF9983;" d="M468.011,90.566c0,0,12.524-3.783,11.567,0.775C478.622,95.899,461.576,94.07,468.011,90.566"/>
		<path style="fill:#66403F;" d="M472.626,81.083c-0.822,0-1.749-0.092-2.796-0.307c-2.063-0.422-3.379-1.34-3.907-2.729
			c-1.079-2.829,1.616-6.494,1.732-6.649l0.802,0.597c-0.025,0.034-2.484,3.382-1.601,5.698c0.4,1.047,1.469,1.755,3.175,2.104
			c6.64,1.358,7.76-2.547,7.771-2.587l0.967,0.257C478.757,77.509,477.739,81.083,472.626,81.083"/>
		<path style="fill:#66403F;" d="M444.511,72.868c-1.783,0-2.966-0.508-3.52-1.514c-1.228-2.228,1.345-5.983,1.453-6.141
			l0.823,0.569c-0.651,0.941-2.172,3.691-1.4,5.091c0.397,0.722,1.424,1.056,3.027,0.987c4.144-0.174,5.463-0.989,5.881-1.458
			c0.211-0.238,0.201-0.401,0.201-0.408l0.981-0.183c0.021,0.091,0.098,0.574-0.338,1.137c-0.861,1.118-3.11,1.761-6.684,1.911
			C444.791,72.865,444.649,72.868,444.511,72.868"/>
		<path style="fill:#66403F;" d="M471.722,66.848c0,0,6.565,0.705,10.687,4.642C483.248,70.182,479.683,61.061,471.722,66.848"/>
		<path style="fill:#66403F;" d="M445.598,59.5c0,0,6.564,0.705,10.686,4.642C457.123,62.834,453.559,53.714,445.598,59.5"/>
		<path style="fill:#EB907B;" d="M510.715,107.732c7.629-12.463-8.168-8.566-8.168-8.566s1.905-3.624,3.887-8.915
			c-1.31-0.274-2.626-0.15-3.91,0.545c-17.667,23.666-43.333,37.333-62.333,33.666c-15.012-2.948-17.088-14.083-17.325-18.332
			c-0.868,12.538,5.868,21.997,28.362,21.781c0,0-3.779,15.673-13.036,23.767c-9.258,8.094,16.043,0.324,21.72-0.465
			c5.506-5.701,30.638-37.956,30.638-37.956S502.469,119.43,510.715,107.732"/>
		<path style="fill:#66403F;" d="M471.473,0.062c0,0-29.766,3.796-27.962,34.747c3.485,15.287,18.409,23.879,38.501,19.045
			c3.225,0.346,13.245-1.841,12.899,1.384c-0.347,3.226,8.95,12.145,5.707,20.652c-3.244,8.507-5.83,28.269-15.161,37.054
			c5.264-1.299,22.61-15.283,33.243-31.851c10.632-16.568,0.07-22.362-3.765-21.375c-2.929-3.111-4.984-5.661-6.547-12.819
			C506.827,39.741,497.307-1.826,471.473,0.062"/>
		<path style="fill:#704848;" d="M452.65,46.975c0,0-20.891-31.135,16.825-43.865C469.59,6.385,441.993,16.005,452.65,46.975"/>
		<path style="fill:#472931;" d="M482.012,53.854c-8.555,1.862-14.905,1.382-19.241,0.345
			C468.337,55.587,474.844,55.579,482.012,53.854"/>
		<path style="fill:#472931;" d="M461.857,53.965c0.237,0.067,0.48,0.124,0.721,0.186C462.333,54.09,462.091,54.029,461.857,53.965"
			/>
		<path style="fill:#472931;" d="M488.701,53.52c-3.743,0.047-6.296,0.276-6.689,0.334C483.421,54.006,486.128,53.673,488.701,53.52
			"/>
		<path style="fill:#472931;" d="M458.286,52.696c-1.859-0.836-2.763-1.567-2.763-1.567l-0.032,0.173
			C456.382,51.816,457.316,52.279,458.286,52.696"/>
		<path style="fill:#5B3938;" d="M518.7,81.093c10.632-16.568,0.07-22.362-3.764-21.375c-1.106-1.174-2.088-2.269-2.965-3.562
			c-6.635-1.854-13.761-2.482-19.404-2.616c1.478,0.179,2.456,0.654,2.344,1.698c-0.346,3.225,8.95,12.145,5.707,20.652
			c-3.244,8.507-5.83,28.268-15.162,37.054C490.721,111.645,508.068,97.662,518.7,81.093"/>
		<path style="fill:#472931;" d="M518.7,81.093c4.709-7.338,5.257-12.558,4.077-16.016c-5.718,6.616-15.255,16.918-26.563,26.242
			c-2.307,8.029-5.434,16.613-10.758,21.625C490.721,111.645,508.068,97.662,518.7,81.093"/>
		<path style="fill:#EB907B;" d="M291.273,71.379c0,0,3.75,12.25,4,24c-3,7.25-11-13.75-11-13.75s7.5,18.75,4,18.75s-10-10-10-10
			s6.75,12.5,4.5,11.5s-7.25-5.75-7.25-5.75s5,6.5,4,7.25s-6.75-3.75-6.75-3.75s6.125,4,6.125,3.125s-4.75-8.25-4.75-8.25
			s7.5,6.75,7.5,5.5s-4.25-11.125-4.25-11.125s10,11.625,10.5,10.25s-4.375-18.875-4.375-18.875s8.375,17.25,10.375,15.5
			C295.398,93.379,291.273,71.379,291.273,71.379"/>
	</g>
</g>
</svg>
